<?xml version="1.0" encoding="utf-8"?>
<!-- Generator: Adobe Illustrator 22.0.1, SVG Export Plug-In . SVG Version: 6.00 Build 0)  -->
<svg version="1.1" id="Capa_1" xmlns="http://www.w3.org/2000/svg" xmlns:xlink="http://www.w3.org/1999/xlink" x="0px" y="0px"
	 viewBox="0 0 185.8 185.8" style="enable-background:new 0 0 185.8 185.8;" xml:space="preserve">
<style type="text/css">
	.st0{fill:#1A1A1A;}
</style>
<g>
	<path class="st0" d="M153.2,75.4c0,3.1-0.4,6.1-1.2,8.9c-0.3,0.9-0.6,1.8-0.9,2.7l-11.3,15l0,0l-44.7,59.2L50.6,102l0,0L39.3,87
		l0,0c-0.3-0.9-0.6-1.8-0.9-2.8c-0.8-2.8-1.2-5.8-1.2-8.9c0-18,14.2-32.6,31.6-32.6c11,0,20.7,5.8,26.4,14.6
		c5.7-8.8,15.4-14.6,26.4-14.6C139.1,42.8,153.2,57.4,153.2,75.4z"/>
	<path class="st0" d="M95.1,0c-24.9,0-47.4,10.5-63.7,27.4l-5.2-3.5c-6.8-4.6-15.8-2.7-20.3,4.3l-3.4,5.3c-4.5,7-2.6,16.3,4.2,20.9
		l5.1,3.5C7.4,68.7,5.1,80.6,5.1,93c0,51.3,40.4,93,90.2,93c49.8,0,90.2-41.6,90.2-93C185.4,41.7,144.8-0.1,95.1,0z M95,172
		c-42.4,0-76.8-35.5-76.8-79.2c0-43.7,34.4-79.2,76.8-79.2s76.8,35.5,76.8,79.2C171.7,136.6,137.4,172,95,172z"/>
</g>
</svg>
