<?xml version="1.0" encoding="utf-8"?>
<!-- Generator: Adobe Illustrator 22.0.1, SVG Export Plug-In . SVG Version: 6.00 Build 0)  -->
<svg version="1.1" id="Capa_1" xmlns="http://www.w3.org/2000/svg" xmlns:xlink="http://www.w3.org/1999/xlink" x="0px" y="0px"
	 viewBox="0 0 935.8 185.8" style="enable-background:new 0 0 935.8 185.8;" xml:space="preserve">
<style type="text/css">
	.st0{fill:#1A1A1A;}
</style>
<g>
	<path class="st0" d="M256.1,128.3H299v9.5h-52.1v-86h9.2V128.3z"/>
	<path class="st0" d="M312.3,64.4c-1.2-1.2-1.7-2.6-1.7-4.3c0-1.7,0.6-3.2,1.7-4.4c1.2-1.2,2.6-1.8,4.2-1.8c1.7,0,3.1,0.6,4.2,1.8
		c1.2,1.2,1.7,2.7,1.7,4.4c0,1.7-0.6,3.1-1.7,4.3c-1.2,1.2-2.6,1.8-4.2,1.8C314.8,66.2,313.4,65.6,312.3,64.4z M312,76.3h8.9v61.6
		H312V76.3z"/>
	<path class="st0" d="M337.6,48.6h9v89.3h-9V48.6z"/>
	<path class="st0" d="M363,64.4c-1.2-1.2-1.7-2.6-1.7-4.3c0-1.7,0.6-3.2,1.7-4.4c1.2-1.2,2.6-1.8,4.2-1.8c1.7,0,3.1,0.6,4.2,1.8
		c1.2,1.2,1.7,2.7,1.7,4.4c0,1.7-0.6,3.1-1.7,4.3c-1.2,1.2-2.6,1.8-4.2,1.8C365.5,66.2,364.1,65.6,363,64.4z M362.7,76.3h8.9v61.6
		h-8.9V76.3z"/>
	<path class="st0" d="M414.6,138.7c-8.4,0-15.6-3.1-21.6-9.2c-6-6.2-9-13.6-9-22.3c0-8.7,3-16.2,9-22.3c6-6.2,13.2-9.2,21.6-9.2
		c8.5,0,15.7,3.1,21.7,9.3v-8.5h8.9v61.4h-8.9v-8.5C430.4,135.6,423.1,138.7,414.6,138.7z M414.6,84.8c-6,0-11.1,2.2-15.3,6.6
		c-4.2,4.4-6.3,9.6-6.3,15.8c0,6.2,2.1,11.4,6.3,15.8c4.2,4.4,9.3,6.5,15.3,6.5c6,0,11.1-2.2,15.4-6.5c4.2-4.4,6.3-9.6,6.3-15.8
		c0-6.2-2.1-11.4-6.3-15.8C425.7,87,420.6,84.8,414.6,84.8z"/>
	<path class="st0" d="M511,137.8h-8.9v-36.9c0-4.4-1.5-8.2-4.6-11.4c-3-3.2-6.7-4.7-11-4.7c-4.3,0-8,1.6-11.1,4.7
		c-3.1,3.2-4.6,7-4.6,11.4v36.9H462V76.4h8.9v5c4.5-3.9,9.8-5.8,15.6-5.8c6.7,0,12.5,2.5,17.3,7.4c4.8,4.9,7.2,10.9,7.2,17.9V137.8z
		"/>
	<path class="st0" d="M612.1,130c6.5,0,12.5-1.8,18-5.3c5.4-3.4,9.5-8,12.4-13.7l8.4,3.7c-3.6,7.4-8.9,13.4-15.7,17.8
		c-7,4.6-14.7,6.8-23,6.8c-5.9,0-11.5-1.2-16.8-3.5c-5.2-2.3-9.8-5.5-13.8-9.6c-4-4.1-7.1-8.9-9.3-14.2c-2.2-5.5-3.4-11.3-3.4-17.3
		c0-6,1.1-11.8,3.4-17.4c2.2-5.3,5.3-10,9.3-14.2c4-4.1,8.6-7.3,13.8-9.6c5.4-2.3,11-3.5,16.8-3.5c8.3,0,16,2.3,23,6.8
		c6.8,4.4,12.1,10.4,15.7,17.8l-8.4,3.7c-2.9-5.8-7-10.3-12.4-13.7c-5.5-3.5-11.5-5.3-18-5.3c-9.4,0-17.5,3.4-24.2,10.3
		c-6.7,6.9-10,15.2-10,25s3.3,18,10,25C594.6,126.5,602.7,130,612.1,130z"/>
	<path class="st0" d="M669.7,129.4c-6-6.2-9-13.6-9-22.3c0-8.7,3-16.1,9-22.3c6-6.2,13.2-9.2,21.6-9.2c8.4,0,15.6,3.1,21.6,9.2
		c6,6.2,9,13.6,9,22.3c0,8.7-3,16.2-9,22.3c-6,6.2-13.2,9.2-21.6,9.2C682.9,138.7,675.6,135.6,669.7,129.4z M676,91.3
		c-4.3,4.4-6.4,9.6-6.4,15.8c0,6.2,2.1,11.4,6.4,15.8c4.2,4.4,9.3,6.5,15.3,6.5c6,0,11.1-2.2,15.3-6.5c4.2-4.4,6.3-9.7,6.3-15.8
		c0-6.2-2.1-11.4-6.3-15.8c-4.2-4.4-9.3-6.5-15.3-6.5C685.3,84.8,680.2,87,676,91.3z"/>
	<path class="st0" d="M738.2,76.3V65.7c0.2-5.7,2.3-10.5,6.2-14.5c4-4,8.8-6.1,14.4-6.1v9.2c-3.1,0-5.8,1.1-8.1,3.4
		c-2.2,2.2-3.5,4.9-3.6,8v10.6h11.7v9.2h-11.7v52.4h-8.9V85.5h-7.5v-9.2H738.2z"/>
	<path class="st0" d="M773.6,76.3V65.7c0.2-5.7,2.3-10.5,6.2-14.5c4-4,8.8-6.1,14.4-6.1v9.2c-3.1,0-5.8,1.1-8.1,3.4
		c-2.2,2.2-3.5,4.9-3.6,8v10.6h11.7v9.2h-11.7v52.4h-8.9V85.5h-7.5v-9.2H773.6z"/>
	<path class="st0" d="M831.5,75.6c8.4,0,15.6,3.1,21.6,9.2c6,6.2,9,13.6,9,22.3L862,109h-52.1c0.5,5.7,2.8,10.6,6.9,14.5
		c4.1,4,9,5.9,14.7,5.9c4.1,0,7.9-1.1,11.3-3.4c3.4-2.1,6-5,7.8-8.6l8.2,3.7c-2.6,5.3-6.2,9.5-11.1,12.7c-5,3.2-10.4,4.9-16.3,4.9
		c-8.4,0-15.6-3.1-21.6-9.2c-6-6.2-9-13.6-9-22.3c0-8.7,3-16.1,9-22.3C815.9,78.7,823.1,75.6,831.5,75.6z M851.9,99.8
		c-1.5-4.4-4.1-8-7.7-10.8c-3.8-2.8-8-4.3-12.7-4.3c-4.7,0-8.9,1.4-12.7,4.3c-3.7,2.8-6.3,6.4-7.8,10.8H851.9z"/>
	<path class="st0" d="M902.4,75.6c8.4,0,15.6,3.1,21.6,9.2c6,6.2,9,13.6,9,22.3l-0.1,1.9h-52.1c0.5,5.7,2.8,10.6,6.9,14.5
		c4.1,4,9,5.9,14.7,5.9c4.1,0,7.9-1.1,11.3-3.4c3.4-2.1,6-5,7.8-8.6l8.2,3.7c-2.6,5.3-6.2,9.5-11.1,12.7c-5,3.2-10.4,4.9-16.3,4.9
		c-8.4,0-15.6-3.1-21.6-9.2c-6-6.2-9-13.6-9-22.3c0-8.7,3-16.1,9-22.3C886.8,78.7,894,75.6,902.4,75.6z M922.8,99.8
		c-1.5-4.4-4.1-8-7.7-10.8c-3.8-2.8-8-4.3-12.7-4.3c-4.7,0-8.9,1.4-12.7,4.3c-3.7,2.8-6.3,6.4-7.8,10.8H922.8z"/>
</g>
<g>
	<path class="st0" d="M152.7,77.6c0,3-0.4,6-1.2,8.8c-0.3,0.9-0.5,1.8-0.9,2.7l-11.2,14.8l0,0l-44.1,58.4l-44-58.5l0,0L40.3,89.1
		l0,0c-0.3-0.9-0.6-1.8-0.9-2.7c-0.8-2.8-1.2-5.7-1.2-8.8c0-17.8,14-32.2,31.2-32.2c10.9,0,20.4,5.7,26,14.4
		c5.6-8.7,15.2-14.4,26-14.4C138.7,45.4,152.7,59.9,152.7,77.6z"/>
	<path class="st0" d="M95.3,3.3c-24.6,0-46.8,10.4-62.9,27l-5.1-3.5c-6.7-4.5-15.6-2.6-20,4.2l-3.4,5.3C-0.5,43.2,1.3,52.4,8,57
		l5.1,3.4C8.8,71.1,6.5,82.7,6.5,95c0,50.6,39.9,91.8,88.9,91.8c49.1,0,88.9-41.1,88.9-91.7C184.4,44.4,144.4,3.2,95.3,3.3z
		 M95.2,173c-41.8,0-75.7-35-75.7-78.1c0-43.1,33.9-78.1,75.7-78.1s75.7,35,75.7,78.1C170.9,138,137,173,95.2,173z"/>
</g>
</svg>
